# xmcd CD database file
#
# Track frame offsets:
#	150
#	36774
#	61156
#	92827
#	128722
#	154505
#	183772
#	204645
#	227360
#	259307
#
# Disc length: 3934 seconds
#
# Revision: 0
# Processed by: cddbd v1.5.2PL0 Copyright (c) Steve Scherf et al.
# Submitted via: CDex 1.75
#
DISCID=790f5c0a
DTITLE=The Sirkis/Bialas International Quartet - Come To Me
DYEAR=2015
DGENRE=Jazz
TTITLE0=Come to Me
TTITLE1=Dreams Dreams
TTITLE2=Vortex
TTITLE3=Ismael
TTITLE4=A Hymn
TTITLE5=Mandragora
TTITLE6=The One
TTITLE7=Magnolia
TTITLE8=Orbs
TTITLE9=Orgon
EXTD=YEAR: 2015
EXTT0=
EXTT1=
EXTT2=
EXTT3=
EXTT4=
EXTT5=
EXTT6=
EXTT7=
EXTT8=
EXTT9=
PLAYORDER=
